<?xml version="1.0" encoding="utf-8"?>
<!-- Generator: Adobe Illustrator 19.0.0, SVG Export Plug-In . SVG Version: 6.00 Build 0)  -->
<svg version="1.1" id="Capa_1" xmlns="http://www.w3.org/2000/svg" xmlns:xlink="http://www.w3.org/1999/xlink" x="0px" y="0px"
	 viewBox="-122 65.7 10 10" style="enable-background:new -122 65.7 10 10;" xml:space="preserve">
<style type="text/css">
	.st0{fill:#005183;}
	.st1{fill:#FFFFFF;}
</style>
<g id="XMLID_154_">
	<path id="XMLID_156_" class="st0" d="M-112.6,66.3c-0.4-0.4-0.8-0.5-1.3-0.5h-6.3c-0.5,0-1,0.2-1.3,0.5c-0.4,0.4-0.6,0.8-0.6,1.3
		v6.3c0,0.5,0.2,1,0.6,1.3c0.4,0.4,0.8,0.6,1.3,0.6h6.3c0.5,0,1-0.2,1.3-0.6c0.4-0.4,0.6-0.8,0.6-1.3v-6.3
		C-112,67.1-112.2,66.6-112.6,66.3L-112.6,66.3z M-113.8,73.3c-0.1,0.2-0.3,0.4-0.6,0.5c-0.3,0.1-0.6,0.2-0.8,0.2
		c-0.1,0-0.1,0-0.2,0c-0.1,0-0.1,0-0.2,0c-0.1,0-0.1,0-0.2-0.1c-0.1,0-0.2-0.1-0.2-0.1c0,0-0.1,0-0.2-0.1c-0.1,0-0.2-0.1-0.2-0.1
		c-0.7-0.3-1.4-0.7-2.1-1.4c-0.7-0.7-1.1-1.4-1.4-2.1c0,0,0-0.1-0.1-0.2c0-0.1-0.1-0.2-0.1-0.2s0-0.1-0.1-0.2c0-0.1,0-0.2-0.1-0.2
		c0-0.1,0-0.1,0-0.2c0-0.1,0-0.2,0-0.2c0-0.2,0.1-0.5,0.2-0.8c0.1-0.3,0.3-0.5,0.5-0.6c0.2-0.1,0.4-0.1,0.7-0.1c0,0,0.1,0,0.1,0
		c0,0,0.1,0,0.1,0.1s0.1,0.2,0.2,0.3c0.1,0.1,0.1,0.2,0.2,0.3c0.1,0.1,0.1,0.2,0.2,0.3c0.1,0.1,0.1,0.2,0.1,0.2c0,0,0,0.1,0.1,0.1
		c0,0.1,0.1,0.1,0.1,0.2c0,0,0,0.1,0,0.1c0,0.1,0,0.1-0.1,0.2c-0.1,0.1-0.2,0.2-0.3,0.3c-0.1,0.1-0.2,0.2-0.3,0.3
		c-0.1,0.1-0.1,0.2-0.1,0.2c0,0,0,0.1,0,0.1c0,0,0,0.1,0,0.1c0,0,0,0.1,0.1,0.1c0,0,0,0.1,0.1,0.1c0.2,0.4,0.5,0.8,0.8,1.1
		c0.3,0.3,0.7,0.6,1.1,0.8c0,0,0,0,0.1,0.1s0.1,0,0.1,0.1c0,0,0.1,0,0.1,0s0.1,0,0.1,0c0.1,0,0.2-0.1,0.3-0.2
		c0.1-0.1,0.2-0.3,0.4-0.4c0.1-0.1,0.2-0.2,0.3-0.2c0,0,0.1,0,0.1,0c0,0,0.1,0.1,0.2,0.1c0.1,0,0.1,0.1,0.1,0.1l0.3,0.2
		c0.2,0.1,0.4,0.2,0.6,0.3c0.2,0.1,0.2,0.2,0.3,0.2c0,0,0,0.1,0,0.1C-113.7,72.9-113.7,73.1-113.8,73.3L-113.8,73.3z"/>
</g>
<g id="XMLID_608_">
	<g id="XMLID_494_">
		<path id="XMLID_589_" class="st1" d="M-112.6,66.3c-0.4-0.4-0.8-0.5-1.3-0.5h-6.3c-0.5,0-1,0.2-1.3,0.5c-0.4,0.4-0.6,0.8-0.6,1.3
			v6.3c0,0.5,0.2,1,0.6,1.3c0.4,0.4,0.8,0.6,1.3,0.6h6.3c0.5,0,1-0.2,1.3-0.6c0.4-0.4,0.6-0.8,0.6-1.3v-6.3
			C-112,67.1-112.2,66.6-112.6,66.3L-112.6,66.3z"/>
	</g>
	<g id="XMLID_592_">
		<path id="XMLID_599_" class="st0" d="M-120.3,68.3l2.9,2.3c0.1,0.1,0.3,0.1,0.5,0.1c0.2,0,0.4,0,0.5-0.1l2.9-2.3
			c0.2-0.2,0.2-0.3-0.1-0.3h-6.5C-120.5,68-120.6,68.1-120.3,68.3L-120.3,68.3z"/>
		<path id="XMLID_594_" class="st0" d="M-113.4,68.9l-3.1,2.4c-0.1,0.1-0.3,0.1-0.4,0.1c-0.2,0-0.3,0-0.4-0.1l-3.1-2.4
			c-0.2-0.2-0.4-0.1-0.4,0.2V73c0,0.3,0.2,0.5,0.5,0.5h6.9c0.3,0,0.5-0.2,0.5-0.5v-3.9C-113,68.8-113.2,68.7-113.4,68.9L-113.4,68.9
			z"/>
	</g>
</g>
</svg>
