<?xml version="1.0" encoding="utf-8"?>
<!-- Generator: Adobe Illustrator 19.0.0, SVG Export Plug-In . SVG Version: 6.00 Build 0)  -->
<svg version="1.1" id="Capa_1" xmlns="http://www.w3.org/2000/svg" xmlns:xlink="http://www.w3.org/1999/xlink" x="0px" y="0px"
	 viewBox="-122 65.7 10 10" style="enable-background:new -122 65.7 10 10;" xml:space="preserve">
<style type="text/css">
	.st0{fill:#FFFFFF;}
	.st1{fill:#005183;}
</style>
<g id="XMLID_490_">
	<g id="XMLID_182_">
		<path id="XMLID_183_" class="st0" d="M-112.5,66.3c-0.4-0.4-0.8-0.5-1.3-0.5h-6.3c-0.5,0-1,0.2-1.3,0.5c-0.4,0.4-0.6,0.8-0.6,1.3
			v6.2c0,0.5,0.2,1,0.6,1.3c0.4,0.4,0.8,0.5,1.3,0.5h6.3c0.5,0,1-0.2,1.3-0.5c0.4-0.4,0.6-0.8,0.6-1.3v-6.2
			C-112,67.1-112.2,66.7-112.5,66.3L-112.5,66.3z"/>
	</g>
</g>
<g>
	<path class="st1" d="M-117,75.2c0,0,3-3.1,3-5.8c0-1.7-1.4-3-3-3s-3,1.4-3,3C-120,72-117,75.2-117,75.2z M-115.8,68.8
		c0,0.6-0.5,1.2-1.2,1.2s-1.2-0.5-1.2-1.2s0.5-1.2,1.2-1.2S-115.8,68.1-115.8,68.8z"/>
</g>
</svg>
