<?xml version="1.0" encoding="utf-8"?>
<!-- Generator: Adobe Illustrator 19.0.0, SVG Export Plug-In . SVG Version: 6.00 Build 0)  -->
<svg version="1.1" id="Capa_1" xmlns="http://www.w3.org/2000/svg" xmlns:xlink="http://www.w3.org/1999/xlink" x="0px" y="0px"
	 viewBox="-122 65.7 10 10" style="enable-background:new -122 65.7 10 10;" xml:space="preserve">
<style type="text/css">
	.st0{fill:#FFFFFF;}
	.st1{fill:#005183;}
</style>
<g id="XMLID_490_">
	<g id="XMLID_182_">
		<path id="XMLID_183_" class="st0" d="M-112.6,66.3c-0.4-0.4-0.8-0.5-1.3-0.5h-6.3c-0.5,0-1,0.2-1.3,0.5c-0.4,0.4-0.6,0.8-0.6,1.3
			v6.2c0,0.5,0.2,1,0.6,1.3c0.4,0.4,0.8,0.5,1.3,0.5h6.3c0.5,0,1-0.2,1.3-0.5c0.4-0.4,0.6-0.8,0.6-1.3v-6.2
			C-112,67.1-112.2,66.6-112.6,66.3L-112.6,66.3z"/>
	</g>
	<g id="XMLID_492_">
		<path id="XMLID_637_" class="st1" d="M-116.9,74.8c0.6-0.1,1.2-0.7,1.5-1.7c-0.5-0.1-1-0.2-1.5-0.2
			C-116.9,72.9-116.9,74.8-116.9,74.8z"/>
		<path id="XMLID_634_" class="st1" d="M-115.9,74.6c0,0,0.1,0,0.1,0c0,0,0.1,0,0.1,0c0,0,0.1,0,0.1,0c0,0,0.1,0,0.1,0
			c0,0,0.1,0,0.1,0c0,0,0.1,0,0.1,0c0,0,0.1,0,0.1,0c0,0,0.1,0,0.1,0c0,0,0.1,0,0.1-0.1c0,0,0.1,0,0.1-0.1c0,0,0.1,0,0.1-0.1
			c0,0,0.1,0,0.1-0.1c0,0,0.1,0,0.1-0.1c0,0,0.1,0,0.1-0.1c0,0,0.1,0,0.1-0.1c0,0,0.1,0,0.1-0.1c0,0,0.1,0,0.1-0.1c0,0,0,0,0.1-0.1
			c0,0,0.1-0.1,0.1-0.1c0,0,0,0,0.1-0.1c0,0,0,0,0,0c-0.3-0.2-0.7-0.3-1-0.4c-0.2,0.6-0.5,1.1-0.9,1.5
			C-116,74.7-116,74.7-115.9,74.6C-115.9,74.7-115.9,74.6-115.9,74.6L-115.9,74.6z"/>
		<path id="XMLID_631_" class="st1" d="M-112.9,70.9h-1.8c0,0.7-0.1,1.4-0.3,2c0.4,0.1,0.8,0.3,1.1,0.4
			C-113.3,72.6-112.9,71.8-112.9,70.9L-112.9,70.9z"/>
		<path id="XMLID_628_" class="st1" d="M-116.9,70.6h1.9c0-0.7-0.1-1.3-0.3-1.9c-0.5,0.1-1.1,0.2-1.6,0.2
			C-116.9,68.8-116.9,70.6-116.9,70.6z"/>
		<path id="XMLID_625_" class="st1" d="M-116.9,66.6v1.9c0.5,0,1-0.1,1.5-0.2C-115.7,67.4-116.2,66.7-116.9,66.6L-116.9,66.6z"/>
		<path id="XMLID_622_" class="st1" d="M-116.9,72.6c0.5,0,1.1,0.1,1.6,0.2c0.2-0.6,0.3-1.3,0.3-1.9h-1.9V72.6z"/>
		<path id="XMLID_619_" class="st1" d="M-113.9,68.1c-0.4,0.2-0.7,0.3-1.1,0.4c0.2,0.7,0.3,1.3,0.3,2h1.8
			C-112.9,69.7-113.3,68.8-113.9,68.1L-113.9,68.1z"/>
		<path id="XMLID_616_" class="st1" d="M-114.1,67.9C-114.1,67.9-114.1,67.9-114.1,67.9C-114.1,67.9-114.1,67.8-114.1,67.9
			c-0.1-0.1-0.1-0.1-0.2-0.2c0,0,0,0-0.1-0.1c0,0-0.1-0.1-0.1-0.1c0,0-0.1,0-0.1-0.1c0,0-0.1,0-0.1-0.1c0,0-0.1,0-0.1-0.1
			c0,0-0.1,0-0.1-0.1c0,0-0.1,0-0.1-0.1c0,0-0.1,0-0.1-0.1c0,0-0.1,0-0.1-0.1c0,0-0.1,0-0.1-0.1c0,0-0.1,0-0.1,0c0,0-0.1,0-0.1,0
			c0,0-0.1,0-0.1,0c0,0-0.1,0-0.1,0c0,0-0.1,0-0.1,0c0,0-0.1,0-0.1,0c0,0-0.1,0-0.1,0c0,0-0.1,0-0.1,0c0,0-0.1,0-0.1,0c0,0,0,0,0,0
			c0.4,0.4,0.8,0.9,0.9,1.5C-114.7,68.2-114.4,68.1-114.1,67.9L-114.1,67.9z"/>
		<path id="XMLID_613_" class="st1" d="M-121.1,70.6h1.8c0-0.7,0.1-1.4,0.3-2c-0.4-0.1-0.8-0.3-1.1-0.4
			C-120.8,68.8-121.1,69.7-121.1,70.6L-121.1,70.6z"/>
		<path id="XMLID_610_" class="st1" d="M-117.2,74.8v-1.9c-0.5,0-1,0.1-1.5,0.2C-118.3,74-117.8,74.7-117.2,74.8L-117.2,74.8z"/>
		<path id="XMLID_607_" class="st1" d="M-117.2,70.9h-1.9c0,0.7,0.1,1.3,0.3,1.9c0.5-0.1,1.1-0.2,1.6-0.2
			C-117.2,72.6-117.2,70.9-117.2,70.9z"/>
		<path id="XMLID_600_" class="st1" d="M-117.2,66.6c-0.6,0.1-1.2,0.7-1.5,1.7c0.5,0.1,1,0.2,1.5,0.2V66.6z"/>
		<path id="XMLID_596_" class="st1" d="M-117.2,68.8c-0.5,0-1.1-0.1-1.6-0.2c-0.2,0.6-0.3,1.3-0.3,1.9h1.9V68.8z"/>
		<path id="XMLID_593_" class="st1" d="M-118,66.8C-118,66.8-118.1,66.8-118,66.8c-0.1,0-0.1,0-0.1,0c0,0-0.1,0-0.1,0
			c0,0-0.1,0-0.1,0c0,0-0.1,0-0.1,0c0,0-0.1,0-0.1,0c0,0-0.1,0-0.1,0c0,0-0.1,0-0.1,0c0,0-0.1,0-0.1,0c0,0-0.1,0-0.1,0
			c0,0-0.1,0-0.1,0.1c0,0-0.1,0-0.1,0.1c0,0-0.1,0-0.1,0.1c0,0-0.1,0-0.1,0.1c0,0-0.1,0-0.1,0.1c0,0-0.1,0-0.1,0.1
			c0,0-0.1,0-0.1,0.1c0,0-0.1,0-0.1,0.1c0,0-0.1,0-0.1,0.1c0,0-0.1,0-0.1,0.1c0,0-0.1,0.1-0.1,0.1c0,0,0,0-0.1,0.1c0,0,0,0,0,0
			c0.3,0.2,0.7,0.3,1,0.4C-118.8,67.7-118.5,67.2-118,66.8L-118,66.8z"/>
		<path id="XMLID_590_" class="st1" d="M-119.9,73.6C-119.9,73.7-119.8,73.7-119.9,73.6c0.1,0.1,0.1,0.1,0.2,0.1
			c0,0,0.1,0.1,0.1,0.1c0,0,0.1,0,0.1,0.1c0,0,0.1,0,0.1,0.1c0,0,0.1,0,0.1,0.1c0,0,0.1,0,0.1,0.1c0,0,0.1,0,0.1,0.1
			c0,0,0.1,0,0.1,0.1c0,0,0.1,0,0.1,0.1c0,0,0.1,0,0.1,0.1c0,0,0.1,0,0.1,0c0,0,0.1,0,0.1,0c0,0,0.1,0,0.1,0c0,0,0.1,0,0.1,0
			c0,0,0.1,0,0.1,0c0,0,0.1,0,0.1,0c0,0,0.1,0,0.1,0c0,0,0.1,0,0.1,0c0,0,0.1,0,0.1,0c0,0,0,0,0,0c-0.4-0.4-0.8-0.9-0.9-1.5
			C-119.3,73.2-119.7,73.4-119.9,73.6C-120,73.5-120,73.5-119.9,73.6C-119.9,73.6-119.9,73.6-119.9,73.6L-119.9,73.6z"/>
		<path id="XMLID_493_" class="st1" d="M-120.2,73.3c0.4-0.2,0.7-0.3,1.1-0.4c-0.2-0.7-0.3-1.3-0.3-2h-1.8
			C-121.1,71.8-120.8,72.6-120.2,73.3L-120.2,73.3z"/>
	</g>
</g>
</svg>
