<?xml version="1.0" encoding="utf-8"?>
<!-- Generator: Adobe Illustrator 19.0.0, SVG Export Plug-In . SVG Version: 6.00 Build 0)  -->
<svg version="1.1" id="Capa_1" xmlns="http://www.w3.org/2000/svg" xmlns:xlink="http://www.w3.org/1999/xlink" x="0px" y="0px"
	 viewBox="-122 65.7 10 10" style="enable-background:new -122 65.7 10 10;" xml:space="preserve">
<style type="text/css">
	.st0{fill:#005183;}
	.st1{fill:#FFFFFF;}
</style>
<g id="XMLID_154_">
	<path id="XMLID_156_" class="st0" d="M-99.2,55.6c-0.4-0.4-0.8-0.5-1.3-0.5h-6.3c-0.5,0-1,0.2-1.3,0.5s-0.6,0.8-0.6,1.3v6.3
		c0,0.5,0.2,1,0.6,1.3c0.4,0.4,0.8,0.6,1.3,0.6h6.3c0.5,0,1-0.2,1.3-0.6c0.4-0.4,0.5-0.8,0.5-1.3v-6.3C-98.6,56.4-98.8,56-99.2,55.6
		L-99.2,55.6z M-100.4,62.7c-0.1,0.2-0.3,0.4-0.6,0.5c-0.3,0.1-0.6,0.2-0.8,0.2c-0.1,0-0.1,0-0.2,0c-0.1,0-0.1,0-0.2,0
		c-0.1,0-0.1,0-0.2-0.1c-0.1,0-0.2,0-0.2-0.1c0,0-0.1,0-0.2-0.1c-0.1,0-0.2-0.1-0.2-0.1c-0.7-0.3-1.4-0.7-2.1-1.4
		c-0.7-0.7-1.1-1.4-1.4-2.1c0,0,0-0.1-0.1-0.2c0-0.1-0.1-0.2-0.1-0.2c0,0,0-0.1-0.1-0.2s0-0.2-0.1-0.2s0-0.1,0-0.2
		c0-0.1,0-0.2,0-0.2c0-0.2,0.1-0.5,0.2-0.9c0.1-0.3,0.3-0.5,0.5-0.6c0.2-0.1,0.4-0.1,0.7-0.1c0,0,0.1,0,0.1,0c0,0,0.1,0,0.1,0.1
		c0.1,0.1,0.1,0.2,0.2,0.3c0.1,0.1,0.1,0.2,0.2,0.3c0.1,0.1,0.1,0.2,0.2,0.3c0.1,0.1,0.1,0.2,0.1,0.2c0,0,0,0.1,0.1,0.1
		c0,0.1,0.1,0.1,0.1,0.2c0,0,0,0.1,0,0.1c0,0.1,0,0.1-0.1,0.2c-0.1,0.1-0.2,0.2-0.3,0.3c-0.1,0.1-0.2,0.2-0.3,0.3
		c-0.1,0.1-0.1,0.2-0.1,0.2c0,0,0,0.1,0,0.1c0,0,0,0.1,0,0.1c0,0,0,0.1,0.1,0.1s0,0.1,0.1,0.1c0.2,0.4,0.5,0.8,0.8,1.1
		c0.3,0.3,0.7,0.6,1.1,0.8c0,0,0,0,0.1,0.1c0,0,0.1,0,0.1,0.1c0,0,0.1,0,0.1,0c0,0,0.1,0,0.1,0c0.1,0,0.2-0.1,0.3-0.2
		c0.1-0.1,0.2-0.3,0.4-0.4c0.1-0.1,0.2-0.2,0.3-0.2c0,0,0.1,0,0.1,0c0,0,0.1,0.1,0.2,0.1c0.1,0,0.1,0.1,0.1,0.1l0.3,0.2
		c0.2,0.1,0.4,0.2,0.6,0.3c0.2,0.1,0.2,0.2,0.3,0.2c0,0,0,0.1,0,0.1C-100.3,62.2-100.3,62.4-100.4,62.7L-100.4,62.7z"/>
</g>
<g id="XMLID_608_">
	<g id="XMLID_494_">
		<path id="XMLID_589_" class="st0" d="M-99.2,66.6c-0.4-0.4-0.8-0.6-1.3-0.6h-6.3c-0.5,0-1,0.2-1.3,0.6c-0.4,0.4-0.6,0.8-0.6,1.3
			v6.3c0,0.5,0.2,1,0.6,1.3c0.4,0.4,0.8,0.5,1.3,0.5h6.3c0.5,0,1-0.2,1.3-0.5c0.4-0.4,0.5-0.8,0.5-1.3v-6.3
			C-98.6,67.4-98.8,66.9-99.2,66.6L-99.2,66.6z"/>
	</g>
	<g id="XMLID_592_">
		<path id="XMLID_599_" class="st1" d="M-106.9,68.6l2.9,2.3c0.1,0.1,0.3,0.1,0.5,0.1c0.2,0,0.4,0,0.5-0.1l2.9-2.3
			c0.2-0.2,0.2-0.3-0.1-0.3h-6.5C-107.1,68.2-107.2,68.4-106.9,68.6L-106.9,68.6z"/>
		<path id="XMLID_594_" class="st1" d="M-100.1,69.2l-3.1,2.4c-0.1,0.1-0.3,0.1-0.4,0.1c-0.2,0-0.3,0-0.4-0.1l-3.1-2.4
			c-0.2-0.2-0.4-0.1-0.4,0.2v3.9c0,0.3,0.2,0.5,0.5,0.5h6.9c0.3,0,0.5-0.2,0.5-0.5v-3.9C-99.6,69.1-99.8,69-100.1,69.2L-100.1,69.2z
			"/>
	</g>
</g>
<g id="XMLID_490_">
	<g id="XMLID_182_">
		<path id="XMLID_183_" class="st0" d="M-124.4,66c-0.4-0.4-0.8-0.6-1.3-0.6h-6.3c-0.5,0-1,0.2-1.3,0.6c-0.4,0.4-0.6,0.8-0.6,1.3
			v6.3c0,0.5,0.2,1,0.6,1.3c0.4,0.4,0.8,0.6,1.3,0.6h6.3c0.5,0,1-0.2,1.3-0.6c0.4-0.4,0.6-0.8,0.6-1.3v-6.3
			C-123.9,66.8-124.1,66.4-124.4,66L-124.4,66z"/>
	</g>
	<g id="XMLID_492_">
		<path id="XMLID_637_" class="st1" d="M-128.8,74.6c0.6-0.1,1.2-0.7,1.5-1.7c-0.5-0.1-1-0.2-1.5-0.2V74.6z"/>
		<path id="XMLID_634_" class="st1" d="M-127.8,74.4c0,0,0.1,0,0.1,0c0,0,0.1,0,0.1,0c0,0,0.1,0,0.1,0c0,0,0.1,0,0.1,0
			c0,0,0.1,0,0.1,0c0,0,0.1,0,0.1,0c0,0,0.1,0,0.1,0c0,0,0.1,0,0.1,0c0,0,0.1,0,0.1-0.1c0,0,0.1,0,0.1-0.1c0,0,0.1,0,0.1-0.1
			c0,0,0.1,0,0.1-0.1c0,0,0.1,0,0.1-0.1c0,0,0.1,0,0.1-0.1c0,0,0.1,0,0.1-0.1c0,0,0.1,0,0.1-0.1c0,0,0.1,0,0.1-0.1
			c0,0,0.1,0,0.1-0.1c0,0,0.1-0.1,0.1-0.1c0,0,0,0,0.1-0.1c0,0,0,0,0,0c-0.3-0.2-0.7-0.3-1-0.4c-0.2,0.6-0.5,1.1-0.9,1.5
			C-127.9,74.4-127.9,74.4-127.8,74.4C-127.8,74.4-127.8,74.4-127.8,74.4L-127.8,74.4z"/>
		<path id="XMLID_631_" class="st1" d="M-124.8,70.6h-1.8c0,0.7-0.1,1.4-0.3,2c0.4,0.1,0.8,0.3,1.1,0.4
			C-125.2,72.4-124.8,71.5-124.8,70.6L-124.8,70.6z"/>
		<path id="XMLID_628_" class="st1" d="M-128.8,70.3h1.9c0-0.7-0.1-1.3-0.3-2c-0.5,0.1-1.1,0.2-1.6,0.2V70.3z"/>
		<path id="XMLID_625_" class="st1" d="M-128.8,66.4v1.9c0.5,0,1-0.1,1.5-0.2C-127.6,67.1-128.1,66.5-128.8,66.4L-128.8,66.4z"/>
		<path id="XMLID_622_" class="st1" d="M-128.8,72.4c0.5,0,1.1,0.1,1.6,0.2c0.2-0.6,0.3-1.3,0.3-2h-1.9V72.4z"/>
		<path id="XMLID_619_" class="st1" d="M-125.7,67.9c-0.4,0.2-0.7,0.3-1.1,0.4c0.2,0.7,0.3,1.3,0.3,2h1.8
			C-124.8,69.4-125.2,68.6-125.7,67.9L-125.7,67.9z"/>
		<path id="XMLID_616_" class="st1" d="M-125.9,67.6C-125.9,67.6-126,67.6-125.9,67.6C-126,67.6-126,67.6-125.9,67.6
			c-0.1-0.1-0.1-0.1-0.2-0.2c0,0-0.1,0-0.1-0.1c0,0-0.1-0.1-0.1-0.1c0,0,0,0-0.1-0.1c0,0-0.1,0-0.1-0.1c0,0-0.1,0-0.1-0.1
			c0,0-0.1,0-0.1-0.1c0,0-0.1,0-0.1-0.1c0,0-0.1,0-0.1-0.1c0,0-0.1,0-0.1-0.1c0,0-0.1,0-0.1-0.1c0,0-0.1,0-0.1,0c0,0-0.1,0-0.1,0
			c0,0-0.1,0-0.1,0c0,0-0.1,0-0.1,0c0,0-0.1,0-0.1,0c0,0-0.1,0-0.1,0c0,0-0.1,0-0.1,0c0,0-0.1,0-0.1,0c0,0-0.1,0-0.1,0c0,0,0,0,0,0
			c0.4,0.4,0.8,0.9,0.9,1.5C-126.6,67.9-126.3,67.8-125.9,67.6L-125.9,67.6z"/>
		<path id="XMLID_613_" class="st1" d="M-133,70.3h1.8c0-0.7,0.1-1.4,0.3-2c-0.4-0.1-0.8-0.3-1.1-0.4C-132.7,68.6-133,69.4-133,70.3
			L-133,70.3z"/>
		<path id="XMLID_610_" class="st1" d="M-129.1,74.6v-1.9c-0.5,0-1,0.1-1.5,0.2C-130.2,73.8-129.7,74.5-129.1,74.6L-129.1,74.6z"/>
		<path id="XMLID_607_" class="st1" d="M-129.1,70.6h-1.9c0,0.7,0.1,1.3,0.3,2c0.5-0.1,1.1-0.2,1.6-0.2
			C-129.1,72.4-129.1,70.6-129.1,70.6z"/>
		<path id="XMLID_600_" class="st1" d="M-129.1,66.4c-0.6,0.1-1.2,0.7-1.5,1.7c0.5,0.1,1,0.2,1.5,0.2V66.4z"/>
		<path id="XMLID_596_" class="st1" d="M-129.1,68.6c-0.5,0-1.1-0.1-1.6-0.2c-0.2,0.6-0.3,1.3-0.3,2h1.9V68.6z"/>
		<path id="XMLID_593_" class="st1" d="M-129.9,66.5C-130,66.5-130,66.5-129.9,66.5c-0.1,0-0.1,0-0.1,0c0,0-0.1,0-0.1,0
			c0,0-0.1,0-0.1,0c0,0-0.1,0-0.1,0c0,0-0.1,0-0.1,0c0,0-0.1,0-0.1,0c0,0-0.1,0-0.1,0c0,0-0.1,0-0.1,0c0,0-0.1,0-0.1,0
			c0,0-0.1,0-0.1,0.1c0,0-0.1,0-0.1,0.1c0,0-0.1,0-0.1,0.1c0,0-0.1,0-0.1,0.1c0,0-0.1,0-0.1,0.1c0,0-0.1,0-0.1,0.1
			c0,0-0.1,0-0.1,0.1c0,0-0.1,0-0.1,0.1c0,0-0.1,0-0.1,0.1c0,0-0.1,0-0.1,0.1c0,0-0.1,0.1-0.1,0.1c0,0,0,0-0.1,0.1c0,0,0,0,0,0
			c0.3,0.2,0.7,0.3,1,0.4C-130.7,67.5-130.4,66.9-129.9,66.5L-129.9,66.5z"/>
		<path id="XMLID_590_" class="st1" d="M-131.8,73.4C-131.8,73.4-131.7,73.4-131.8,73.4c0.1,0.1,0.1,0.1,0.2,0.1
			c0,0,0.1,0.1,0.1,0.1c0,0,0.1,0,0.1,0.1c0,0,0.1,0,0.1,0.1c0,0,0.1,0,0.1,0.1c0,0,0.1,0,0.1,0.1c0,0,0.1,0,0.1,0.1
			c0,0,0.1,0,0.1,0.1c0,0,0.1,0,0.1,0.1c0,0,0.1,0,0.1,0.1c0,0,0.1,0,0.1,0c0,0,0.1,0,0.1,0c0,0,0.1,0,0.1,0c0,0,0.1,0,0.1,0
			c0,0,0.1,0,0.1,0c0,0,0.1,0,0.1,0c0,0,0.1,0,0.1,0c0,0,0.1,0,0.1,0c0,0,0.1,0,0.1,0c0,0,0,0,0,0c-0.4-0.4-0.8-0.9-0.9-1.5
			C-131.2,73-131.6,73.1-131.8,73.4C-131.9,73.3-131.9,73.3-131.8,73.4C-131.9,73.3-131.8,73.4-131.8,73.4L-131.8,73.4z"/>
		<path id="XMLID_493_" class="st1" d="M-132.1,73.1c0.4-0.2,0.7-0.3,1.1-0.4c-0.2-0.7-0.3-1.3-0.3-2h-1.8
			C-133,71.5-132.7,72.4-132.1,73.1L-132.1,73.1z"/>
	</g>
</g>
<path id="XMLID_163_" class="st1" d="M-113.3,65.7h-7.3c-0.7,0-1.4,0.6-1.4,1.4v7.3c0,0.7,0.6,1.4,1.4,1.4h3.6l0-3.6h-0.9
	c-0.1,0-0.2-0.1-0.2-0.2l0-1.2c0-0.1,0.1-0.2,0.2-0.2h0.9v-1.1c0-1.3,0.8-2,1.9-2h0.9c0.1,0,0.2,0.1,0.2,0.2v1
	c0,0.1-0.1,0.2-0.2,0.2h-0.6c-0.6,0-0.8,0.3-0.8,0.7v1h1.4c0.1,0,0.2,0.1,0.2,0.2L-114,72c0,0.1-0.1,0.2-0.2,0.2h-1.2l0,3.6h2.1
	c0.7,0,1.4-0.6,1.4-1.4v-7.3C-112,66.3-112.6,65.7-113.3,65.7z"/>
</svg>
