<?xml version="1.0" encoding="utf-8"?>
<!-- Generator: Adobe Illustrator 19.0.0, SVG Export Plug-In . SVG Version: 6.00 Build 0)  -->
<svg version="1.1" id="Capa_1" xmlns="http://www.w3.org/2000/svg" xmlns:xlink="http://www.w3.org/1999/xlink" x="0px" y="0px"
	 viewBox="0 0 374.5 78" style="enable-background:new 0 0 374.5 78;" xml:space="preserve">
<style type="text/css">
	.st0{fill:#005380;}
	.st1{fill:#B0B6BE;}
	.st2{fill:none;}
	.st3{fill:#FFFFFF;}
</style>
<g id="XMLID_5_">
	<g id="XMLID_76_">
		<g id="XMLID_158_">
			<path id="XMLID_171_" class="st0" d="M-13.8,503.7v12.8h-32v13.2H-17v12.2h-28.8v13.3h33v12.7h-47.3v-64.2H-13.8z"/>
			<path id="XMLID_168_" class="st0" d="M44.3,509.4c4.5,3.8,6.8,9.7,6.8,17.6c0,7.9-2.3,13.7-6.9,17.4c-4.6,3.7-11.7,5.5-21.2,5.5
				h-8.5v17.9H0v-64.2h22.7C32.6,503.7,39.8,505.6,44.3,509.4z M33.7,534.7c1.7-1.9,2.6-4.7,2.6-8.5c0-3.7-1.1-6.3-3.4-7.9
				c-2.2-1.6-5.7-2.3-10.4-2.3h-8.2v21.6H24C28.8,537.6,32,536.6,33.7,534.7z"/>
			<path id="XMLID_165_" class="st0" d="M106.5,509.4c4.5,3.8,6.8,9.7,6.8,17.6c0,7.9-2.3,13.7-6.9,17.4c-4.6,3.7-11.7,5.5-21.2,5.5
				h-8.5v17.9H62.2v-64.2h22.7C94.8,503.7,102,505.6,106.5,509.4z M96,534.7c1.7-1.9,2.6-4.7,2.6-8.5c0-3.7-1.1-6.3-3.4-7.9
				c-2.2-1.6-5.7-2.3-10.4-2.3h-8.2v21.6h9.7C91,537.6,94.2,536.6,96,534.7z"/>
			<path id="XMLID_162_" class="st0" d="M178.5,559.1c-6.5,6.3-14.5,9.5-24,9.5c-9.5,0-17.5-3.2-24-9.5c-6.5-6.3-9.7-14.2-9.7-23.7
				c0-9.4,3.2-17.3,9.7-23.7c6.5-6.3,14.5-9.5,24-9.5c9.5,0,17.5,3.2,24,9.5c6.5,6.3,9.7,14.2,9.7,23.7
				C188.2,544.8,185,552.7,178.5,559.1z M173.6,535.4c0-5.7-1.8-10.6-5.5-14.7c-3.7-4-8.2-6.1-13.6-6.1c-5.4,0-9.9,2-13.6,6.1
				c-3.7,4-5.5,8.9-5.5,14.7c0,5.7,1.8,10.6,5.5,14.6c3.7,4,8.2,6,13.6,6c5.4,0,9.9-2,13.6-6C171.8,546,173.6,541.2,173.6,535.4z"/>
			<path id="XMLID_159_" class="st0" d="M252.5,525c0,10.3-4.1,16.9-12.2,19.9l16.3,23h-17.6l-14.2-20.5h-9.9v20.5h-14.3v-64.2h24.4
				c10,0,17.1,1.7,21.4,5.1C250.3,512.1,252.5,517.5,252.5,525z M235.2,532.6c1.8-1.6,2.7-4.1,2.7-7.6c0-3.5-0.9-5.8-2.8-7.1
				c-1.8-1.3-5.1-1.9-9.7-1.9h-10.8v19h10.5C230.1,535,233.4,534.2,235.2,532.6z"/>
		</g>
		<g id="XMLID_78_">
			<path id="XMLID_156_" class="st0" d="M-54,580.7v1.6h-5.2v2.6h4.7v1.5h-4.7v2.6h5.4v1.6h-7v-9.8H-54z"/>
			<path id="XMLID_153_" class="st0" d="M-47,590.5l-0.2,0c-1.5,0-2.7-0.5-3.7-1.4c-1-1-1.5-2.2-1.5-3.6c0-1.4,0.5-2.6,1.5-3.6
				c1-1,2.2-1.4,3.7-1.4c1.5,0,2.7,0.5,3.7,1.4c1,1,1.5,2.2,1.5,3.6c0,1.1-0.3,2.1-0.9,2.9c-0.6,0.8-1.4,1.5-2.4,1.8
				c0.3,0.4,0.7,0.6,1.2,0.6c0.4,0,0.7-0.1,1-0.3c0.3-0.2,0.6-0.4,0.8-0.7l0.9,1.3c-0.8,0.9-1.7,1.3-2.8,1.3c-0.6,0-1.2-0.2-1.7-0.5
				C-46.4,591.6-46.8,591.1-47,590.5z M-44.8,583c-0.7-0.7-1.5-1-2.5-1c-1,0-1.8,0.3-2.5,1c-0.7,0.7-1,1.5-1,2.5c0,1,0.3,1.8,1,2.5
				c0.7,0.7,1.5,1,2.5,1c1,0,1.8-0.3,2.5-1c0.7-0.7,1-1.5,1-2.5C-43.8,584.5-44.1,583.7-44.8,583z"/>
			<path id="XMLID_151_" class="st0" d="M-37.8,588.2c0.4,0.5,1.1,0.8,1.8,0.8c0.8,0,1.4-0.3,1.8-0.8c0.4-0.5,0.7-1.2,0.7-2.1v-5.4
				h1.7v5.5c0,1.4-0.4,2.5-1.2,3.3c-0.8,0.8-1.8,1.1-3,1.1c-1.2,0-2.2-0.4-3-1.1c-0.8-0.8-1.2-1.8-1.2-3.3v-5.5h1.7v5.4
				C-38.4,587-38.2,587.7-37.8,588.2z"/>
			<path id="XMLID_149_" class="st0" d="M-29.2,580.7h1.7v9.8h-1.7V580.7z"/>
			<path id="XMLID_146_" class="st0" d="M-18.3,581.5c0.7,0.6,1,1.4,1,2.6c0,1.2-0.3,2.1-1,2.6c-0.7,0.6-1.8,0.8-3.2,0.8h-1.7v2.9
				h-1.7v-9.8h3.4C-20,580.7-18.9,581-18.3,581.5z M-19.4,585.6c0.3-0.3,0.5-0.9,0.5-1.5c0-0.7-0.2-1.2-0.6-1.4
				c-0.4-0.3-1.1-0.4-2-0.4h-1.7v3.9h1.9C-20.4,586.1-19.8,585.9-19.4,585.6z"/>
			<path id="XMLID_143_" class="st0" d="M-7.1,589.1c-1,1-2.2,1.4-3.7,1.4c-1.5,0-2.7-0.5-3.7-1.4c-1-1-1.5-2.2-1.5-3.6
				c0-1.4,0.5-2.6,1.5-3.6c1-1,2.2-1.4,3.7-1.4c1.5,0,2.7,0.5,3.7,1.4c1,1,1.5,2.2,1.5,3.6C-5.6,586.9-6.1,588.1-7.1,589.1z
				 M-8.3,583c-0.7-0.7-1.5-1-2.5-1c-1,0-1.8,0.3-2.5,1c-0.7,0.7-1,1.5-1,2.5c0,1,0.3,1.8,1,2.5c0.7,0.7,1.5,1,2.5,1
				c1,0,1.8-0.3,2.5-1c0.7-0.7,1-1.5,1-2.5C-7.3,584.5-7.6,583.7-8.3,583z"/>
			<path id="XMLID_141_" class="st0" d="M-0.6,582c-0.5,0-0.9,0.1-1.2,0.3c-0.3,0.2-0.5,0.5-0.5,0.9c0,0.4,0.2,0.7,0.5,0.9
				c0.3,0.2,1,0.4,2,0.7c1,0.2,1.8,0.6,2.3,1c0.5,0.4,0.8,1.1,0.8,1.9c0,0.9-0.3,1.5-1,2.1c-0.6,0.5-1.5,0.8-2.5,0.8
				c-1.5,0-2.9-0.5-4.1-1.6l1-1.2c1,0.9,2,1.3,3.1,1.3c0.5,0,1-0.1,1.3-0.3c0.3-0.2,0.5-0.5,0.5-0.9s-0.1-0.7-0.4-0.9
				c-0.3-0.2-0.8-0.4-1.5-0.6c-0.7-0.2-1.3-0.3-1.6-0.5c-0.4-0.1-0.7-0.3-1-0.6c-0.6-0.4-0.9-1.1-0.9-2c0-0.9,0.3-1.6,1-2.1
				c0.7-0.5,1.5-0.7,2.4-0.7c0.6,0,1.2,0.1,1.9,0.3c0.6,0.2,1.1,0.5,1.6,0.9l-0.9,1.2c-0.3-0.3-0.7-0.5-1.2-0.6
				C0.4,582.1-0.1,582-0.6,582z"/>
			<path id="XMLID_139_" class="st0" d="M9.1,580.7h1.7v9.8H9.1V580.7z"/>
			<path id="XMLID_137_" class="st0" d="M20.8,580.7h1.7v9.8h-1.8l-5.5-7.1v7.1h-1.7v-9.8h1.7l5.7,7.3V580.7z"/>
			<path id="XMLID_134_" class="st0" d="M32.6,582c0.9,0.9,1.4,2,1.4,3.6c0,1.5-0.5,2.7-1.4,3.6c-0.9,0.9-2.3,1.3-4.2,1.3h-3.2v-9.8
				h3.4C30.3,580.7,31.6,581.1,32.6,582z M32.3,585.6c0-2.2-1.3-3.4-3.8-3.4h-1.7v6.7h1.8c1.2,0,2.1-0.3,2.7-0.8
				C32,587.5,32.3,586.7,32.3,585.6z"/>
			<path id="XMLID_132_" class="st0" d="M38.3,588.2c0.4,0.5,1.1,0.8,1.8,0.8c0.8,0,1.4-0.3,1.8-0.8c0.4-0.5,0.7-1.2,0.7-2.1v-5.4
				h1.7v5.5c0,1.4-0.4,2.5-1.2,3.3c-0.8,0.8-1.8,1.1-3,1.1c-1.2,0-2.2-0.4-3-1.1c-0.8-0.8-1.2-1.8-1.2-3.3v-5.5h1.7v5.4
				C37.7,587,37.9,587.7,38.3,588.2z"/>
			<path id="XMLID_130_" class="st0" d="M49.8,582c-0.5,0-0.9,0.1-1.2,0.3c-0.3,0.2-0.5,0.5-0.5,0.9c0,0.4,0.2,0.7,0.5,0.9
				c0.3,0.2,1,0.4,2,0.7c1,0.2,1.8,0.6,2.3,1c0.5,0.4,0.8,1.1,0.8,1.9c0,0.9-0.3,1.5-1,2.1c-0.6,0.5-1.5,0.8-2.5,0.8
				c-1.5,0-2.9-0.5-4.1-1.6l1-1.2c1,0.9,2,1.3,3.1,1.3c0.5,0,1-0.1,1.3-0.3c0.3-0.2,0.5-0.5,0.5-0.9s-0.1-0.7-0.4-0.9
				c-0.3-0.2-0.8-0.4-1.5-0.6c-0.7-0.2-1.3-0.3-1.6-0.5c-0.4-0.1-0.7-0.3-1-0.6c-0.6-0.4-0.9-1.1-0.9-2c0-0.9,0.3-1.6,1-2.1
				s1.5-0.7,2.4-0.7c0.6,0,1.2,0.1,1.9,0.3c0.6,0.2,1.1,0.5,1.6,0.9l-0.9,1.2c-0.3-0.3-0.7-0.5-1.2-0.6
				C50.8,582.1,50.3,582,49.8,582z"/>
			<path id="XMLID_128_" class="st0" d="M59.4,582.2v8.3h-1.7v-8.3h-3v-1.5h7.6v1.5H59.4z"/>
			<path id="XMLID_125_" class="st0" d="M72,583.9c0,1.6-0.7,2.6-2.1,3.1l2.6,3.6h-2.1l-2.3-3.3h-2.2v3.3h-1.7v-9.8h3.6
				c1.5,0,2.6,0.3,3.2,0.8C71.6,581.9,72,582.8,72,583.9z M69.8,585.2c0.3-0.3,0.5-0.8,0.5-1.4c0-0.6-0.2-1.1-0.5-1.3
				c-0.3-0.2-1-0.4-1.8-0.4h-2.1v3.5h2.1C68.8,585.7,69.4,585.5,69.8,585.2z"/>
			<path id="XMLID_123_" class="st0" d="M74.3,580.7H76v9.8h-1.7V580.7z"/>
			<path id="XMLID_120_" class="st0" d="M80.1,588.2l-1,2.2h-1.8l4.3-9.8h1.8l4.3,9.8H86l-1-2.2H80.1z M84.3,586.7l-1.8-4l-1.8,4
				H84.3z"/>
			<path id="XMLID_118_" class="st0" d="M89.1,590.5v-9.8h1.7v8.2h4.5v1.6H89.1z"/>
			<path id="XMLID_116_" class="st0" d="M103.9,580.7v1.6h-5.2v2.6h4.7v1.5h-4.7v2.6h5.4v1.6h-7v-9.8H103.9z"/>
			<path id="XMLID_114_" class="st0" d="M109.1,582c-0.5,0-0.9,0.1-1.2,0.3c-0.3,0.2-0.5,0.5-0.5,0.9c0,0.4,0.2,0.7,0.5,0.9
				c0.3,0.2,1,0.4,2,0.7c1,0.2,1.8,0.6,2.3,1c0.5,0.4,0.8,1.1,0.8,1.9c0,0.9-0.3,1.5-1,2.1c-0.6,0.5-1.5,0.8-2.5,0.8
				c-1.5,0-2.9-0.5-4.1-1.6l1-1.2c1,0.9,2,1.3,3.1,1.3c0.5,0,1-0.1,1.3-0.3c0.3-0.2,0.5-0.5,0.5-0.9s-0.1-0.7-0.4-0.9
				c-0.3-0.2-0.8-0.4-1.5-0.6c-0.7-0.2-1.3-0.3-1.6-0.5c-0.4-0.1-0.7-0.3-1-0.6c-0.6-0.4-0.9-1.1-0.9-2c0-0.9,0.3-1.6,1-2.1
				c0.7-0.5,1.5-0.7,2.4-0.7c0.6,0,1.2,0.1,1.9,0.3c0.6,0.2,1.1,0.5,1.6,0.9l-0.9,1.2c-0.3-0.3-0.7-0.5-1.2-0.6
				C110.1,582.1,109.6,582,109.1,582z"/>
			<path id="XMLID_112_" class="st0" d="M122.7,590.5H121v-3.9l-3.6-5.9h1.8l2.7,4.5l2.7-4.5h1.8l-3.6,5.9V590.5z"/>
			<path id="XMLID_109_" class="st0" d="M132.8,588.2l-1,2.2H130l4.3-9.8h1.8l4.3,9.8h-1.8l-1-2.2H132.8z M137,586.7l-1.8-4l-1.8,4
				H137z"/>
			<path id="XMLID_107_" class="st0" d="M148.5,585.7h1.7v3.3c-0.9,1-2.2,1.5-4,1.5c-1.4,0-2.7-0.5-3.6-1.4c-1-1-1.5-2.2-1.5-3.6
				c0-1.5,0.5-2.7,1.5-3.6c1-1,2.2-1.5,3.6-1.5c1.4,0,2.6,0.4,3.5,1.2l-0.9,1.3c-0.4-0.3-0.8-0.6-1.2-0.7c-0.4-0.1-0.8-0.2-1.4-0.2
				c-1,0-1.8,0.3-2.5,1c-0.7,0.6-1,1.5-1,2.5c0,1,0.3,1.9,1,2.5c0.7,0.6,1.4,0.9,2.4,0.9c0.9,0,1.7-0.2,2.3-0.6V585.7z"/>
			<path id="XMLID_104_" class="st0" d="M160.2,583.9c0,1.6-0.7,2.6-2.1,3.1l2.6,3.6h-2.1l-2.3-3.3H154v3.3h-1.7v-9.8h3.6
				c1.5,0,2.6,0.3,3.2,0.8C159.8,581.9,160.2,582.8,160.2,583.9z M158,585.2c0.3-0.3,0.5-0.8,0.5-1.4c0-0.6-0.2-1.1-0.5-1.3
				c-0.3-0.2-1-0.4-1.8-0.4H154v3.5h2.1C157,585.7,157.6,585.5,158,585.2z"/>
			<path id="XMLID_101_" class="st0" d="M170.7,589.1c-1,1-2.2,1.4-3.7,1.4c-1.5,0-2.7-0.5-3.7-1.4c-1-1-1.5-2.2-1.5-3.6
				c0-1.4,0.5-2.6,1.5-3.6c1-1,2.2-1.4,3.7-1.4c1.5,0,2.7,0.5,3.7,1.4c1,1,1.5,2.2,1.5,3.6C172.2,586.9,171.7,588.1,170.7,589.1z
				 M169.5,583c-0.7-0.7-1.5-1-2.5-1c-1,0-1.8,0.3-2.5,1c-0.7,0.7-1,1.5-1,2.5c0,1,0.3,1.8,1,2.5c0.7,0.7,1.5,1,2.5,1
				c1,0,1.8-0.3,2.5-1c0.7-0.7,1-1.5,1-2.5C170.5,584.5,170.2,583.7,169.5,583z"/>
			<path id="XMLID_98_" class="st0" d="M180.9,581.5c0.7,0.6,1,1.4,1,2.6c0,1.2-0.3,2.1-1,2.6c-0.7,0.6-1.8,0.8-3.2,0.8h-1.7v2.9
				h-1.7v-9.8h3.4C179.1,580.7,180.2,581,180.9,581.5z M179.7,585.6c0.3-0.3,0.5-0.9,0.5-1.5c0-0.7-0.2-1.2-0.6-1.4
				c-0.4-0.3-1.1-0.4-2-0.4h-1.7v3.9h1.9C178.8,586.1,179.4,585.9,179.7,585.6z"/>
			<path id="XMLID_96_" class="st0" d="M190.7,580.7v1.6h-5.2v2.6h4.7v1.5h-4.7v2.6h5.4v1.6h-7v-9.8H190.7z"/>
			<path id="XMLID_94_" class="st0" d="M197.5,589c0.6,0,1.1-0.1,1.5-0.3c0.4-0.2,0.8-0.5,1.3-0.9l1.1,1.1c-1,1.1-2.3,1.7-3.8,1.7
				c-1.5,0-2.7-0.5-3.7-1.4c-1-1-1.5-2.2-1.5-3.6c0-1.5,0.5-2.7,1.5-3.6c1-1,2.2-1.5,3.8-1.5c1.5,0,2.8,0.6,3.8,1.7l-1,1.1
				c-0.5-0.4-0.9-0.8-1.3-0.9c-0.4-0.2-0.9-0.3-1.5-0.3c-1,0-1.8,0.3-2.5,1c-0.7,0.6-1,1.5-1,2.4s0.3,1.8,1,2.5
				C195.8,588.6,196.6,589,197.5,589z"/>
			<path id="XMLID_92_" class="st0" d="M205.5,588.2c0.4,0.5,1.1,0.8,1.8,0.8c0.8,0,1.4-0.3,1.8-0.8c0.4-0.5,0.7-1.2,0.7-2.1v-5.4
				h1.7v5.5c0,1.4-0.4,2.5-1.2,3.3c-0.8,0.8-1.8,1.1-3,1.1c-1.2,0-2.2-0.4-3-1.1c-0.8-0.8-1.2-1.8-1.2-3.3v-5.5h1.7v5.4
				C204.8,587,205.1,587.7,205.5,588.2z"/>
			<path id="XMLID_89_" class="st0" d="M215.2,588.2l-1,2.2h-1.8l4.3-9.8h1.8l4.3,9.8h-1.8l-1-2.2H215.2z M219.4,586.7l-1.8-4
				l-1.8,4H219.4z"/>
			<path id="XMLID_86_" class="st0" d="M232,583.9c0,1.6-0.7,2.6-2.1,3.1l2.6,3.6h-2.1l-2.3-3.3h-2.2v3.3h-1.7v-9.8h3.6
				c1.5,0,2.6,0.3,3.2,0.8C231.7,581.9,232,582.8,232,583.9z M229.8,585.2c0.3-0.3,0.5-0.8,0.5-1.4c0-0.6-0.2-1.1-0.5-1.3
				c-0.3-0.2-1-0.4-1.8-0.4h-2.1v3.5h2.1C228.9,585.7,229.5,585.5,229.8,585.2z"/>
			<path id="XMLID_84_" class="st0" d="M234.4,580.7h1.7v9.8h-1.7V580.7z"/>
			<path id="XMLID_81_" class="st0" d="M247,589.1c-1,1-2.2,1.4-3.7,1.4c-1.5,0-2.7-0.5-3.7-1.4c-1-1-1.5-2.2-1.5-3.6
				c0-1.4,0.5-2.6,1.5-3.6c1-1,2.2-1.4,3.7-1.4c1.5,0,2.7,0.5,3.7,1.4c1,1,1.5,2.2,1.5,3.6C248.4,586.9,247.9,588.1,247,589.1z
				 M245.7,583c-0.7-0.7-1.5-1-2.5-1c-1,0-1.8,0.3-2.5,1c-0.7,0.7-1,1.5-1,2.5c0,1,0.3,1.8,1,2.5c0.7,0.7,1.5,1,2.5,1
				c1,0,1.8-0.3,2.5-1c0.7-0.7,1-1.5,1-2.5C246.7,584.5,246.4,583.7,245.7,583z"/>
			<path id="XMLID_79_" class="st0" d="M253.5,582c-0.5,0-0.9,0.1-1.2,0.3c-0.3,0.2-0.5,0.5-0.5,0.9c0,0.4,0.2,0.7,0.5,0.9
				c0.3,0.2,1,0.4,2,0.7c1,0.2,1.8,0.6,2.3,1c0.5,0.4,0.8,1.1,0.8,1.9c0,0.9-0.3,1.5-1,2.1c-0.6,0.5-1.5,0.8-2.5,0.8
				c-1.5,0-2.9-0.5-4.1-1.6l1-1.2c1,0.9,2,1.3,3.1,1.3c0.5,0,1-0.1,1.3-0.3c0.3-0.2,0.5-0.5,0.5-0.9s-0.1-0.7-0.4-0.9
				c-0.3-0.2-0.8-0.4-1.5-0.6c-0.7-0.2-1.3-0.3-1.6-0.5c-0.4-0.1-0.7-0.3-1-0.6c-0.6-0.4-0.9-1.1-0.9-2c0-0.9,0.3-1.6,1-2.1
				c0.7-0.5,1.5-0.7,2.4-0.7c0.6,0,1.2,0.1,1.9,0.3c0.6,0.2,1.1,0.5,1.6,0.9l-0.9,1.2c-0.3-0.3-0.7-0.5-1.2-0.6
				C254.4,582.1,254,582,253.5,582z"/>
		</g>
		<path id="XMLID_13_" class="st0" d="M96.8,578.7"/>
	</g>
	<g id="XMLID_6_">
		<path id="XMLID_12_" class="st1" d="M277.3,521.3v26.4l0,0c0,19.5,15.8,31.3,35.3,31.3c19.5,0,35.3-11.8,35.3-31.3L277.3,521.3z"
			/>
		<path id="XMLID_11_" class="st1" d="M397.1,503.1c0,0-4.4-5.3-9.9-7.6c-5.5-2.3-11.5-1.4-11.5-1.4l5.1,4.6c0,0-4.6-1.1-11-2.1
			c-6.4-0.9-8,2.8-8,2.8s3.4,0.2,5.7,3.7c2.3,3.4,1.4,5.1,5.5,8.5c4.1,3.4,5.1,3.4,5.1,3.4s-5.7,9.9-13.6,13.1
			c-7.8,3.2-12.9-0.2-12.9-0.2s-2.3,3.4-2.3,7.1c0,3.7,2.1,6.9,2.1,6.9s0.5,0.7,1.6,1.8c0,0,13,9.7,33.1,10
			c8.1,0.2,13.6,1.1,17.4,2.2c1.9,1.6,3.6,3.2,4.9,4.6c4.1,4.4,1,13,1,13l-7.5,18.8h22l0.1-0.2l4.4-0.5V488.5
			C405.3,493.9,397.1,503.1,397.1,503.1z"/>
		<g id="XMLID_8_">
			<rect id="XMLID_10_" x="320.8" y="482.8" class="st2" width="107.5" height="24.6"/>
			<g id="XMLID_9_">
				<path id="XMLID_65_" class="st0" d="M356.1,551.5c0,0-8.8-0.2-14.5-7.3c-1.9-2.4-16.3-2.7-20.9-2.8V522h107.5v-15.1H320.8v-24.6
					h107.5v-15.1H319l-13.4,0v124.8h15.1V555c4.4,0.1,14.2,0.6,16.4,3.4c5.1,6.6,14.1,6.7,14.1,6.7l77,0v-13.5L356.1,551.5z"/>
				<path id="XMLID_66_" class="st3" d="M428.3,467.1v15.1H320.8v24.6h107.5V522H320.8v19.4c4.6,0,19,0.4,20.9,2.8
					c5.7,7.1,14.5,7.3,14.5,7.3l72.1,0v13.5l-77,0c0,0-9-0.1-14.1-6.7c-2.2-2.9-12-3.4-16.4-3.4v36.9h-15.1V467.1l13.4,0H428.3
					 M431.1,464.3h-2.8H319l-13.4,0l-2.8,0v2.8v124.8v2.8h2.8h15.1h2.8v-2.8v-34c1.8,0.1,3.8,0.3,5.7,0.5c4.8,0.7,5.7,1.7,5.7,1.7
					c5.9,7.6,15.9,7.7,16.3,7.7l0,0h0l77,0l2.8,0v-2.8v-13.5v-2.8l-2.8,0l-72.1,0c-0.3,0-2.1-0.1-4.5-0.9c-3.3-1.1-5.9-2.9-7.9-5.4
					c-1.2-1.5-3.6-2.6-11.4-3.3c-3.2-0.3-6.4-0.4-8.9-0.5v-13.8h104.7h2.8V522v-15.1V504h-2.8H323.6v-18.9h104.7h2.8v-2.8v-15.1
					V464.3L431.1,464.3z"/>
			</g>
		</g>
	</g>
</g>
<g id="XMLID_73_">
	<path id="XMLID_7_" class="st0" d="M13.2,33.4c0,21.7,17.6,39.2,39.2,39.2S91.7,55,91.7,33.4c0-10.9-4.5-20.8-11.7-28h-55
		C17.7,12.5,13.2,22.4,13.2,33.4z"/>
	<g id="XMLID_174_">
		<path id="XMLID_175_" class="st3" d="M41,49.2c-3.2,0-5.6-1.1-7.2-3.3s-2.4-5.1-2.4-8.7c0-3.6,0.8-6.5,2.4-8.7
			c1.6-2.2,4-3.3,7.2-3.3s5.6,1.1,7.2,3.3c1.6,2.2,2.4,5.1,2.4,8.7c0,3.6-0.8,6.5-2.4,8.7S44.2,49.2,41,49.2z M37.6,31.7
			c-0.7,1.4-1.1,3.3-1.1,5.6s0.4,4.2,1.1,5.6c0.7,1.4,1.9,2.1,3.4,2.1s2.7-0.7,3.4-2.1c0.7-1.4,1.1-3.3,1.1-5.6s-0.4-4.2-1.1-5.6
			c-0.7-1.4-1.9-2.1-3.4-2.1S38.4,30.3,37.6,31.7z"/>
		<path id="XMLID_178_" class="st3" d="M63.8,49.2c-3.2,0-5.6-1.1-7.2-3.3s-2.4-5.1-2.4-8.7c0-3.6,0.8-6.5,2.4-8.7
			c1.6-2.2,4-3.3,7.2-3.3s5.6,1.1,7.2,3.3c1.6,2.2,2.4,5.1,2.4,8.7c0,3.6-0.8,6.5-2.4,8.7S67,49.2,63.8,49.2z M60.4,31.7
			c-0.7,1.4-1.1,3.3-1.1,5.6s0.4,4.2,1.1,5.6c0.7,1.4,1.9,2.1,3.4,2.1s2.7-0.7,3.4-2.1c0.7-1.4,1.1-3.3,1.1-5.6s-0.4-4.2-1.1-5.6
			c-0.7-1.4-1.9-2.1-3.4-2.1S61.1,30.3,60.4,31.7z"/>
	</g>
</g>
<path id="XMLID_1_" class="st0" d="M118.6,34.9c0,15.7,12.7,28.3,28.3,28.3s28.3-12.7,28.3-28.3c0-7.9-3.2-15.1-8.5-20.2H127
	C121.8,19.9,118.6,27,118.6,34.9z"/>
<g id="XMLID_183_">
	<path id="XMLID_184_" class="st3" d="M139.6,30.2v-4.4h14.1v3.6l-4.7,5.4c1.8,0.3,3.3,1.1,4.3,2.3c1,1.2,1.5,2.7,1.5,4.3
		c0,2.4-0.8,4.3-2.5,5.7c-1.6,1.4-3.7,2.1-6.3,2.1c-2.6,0-5.1-0.9-7.8-2.7l2.1-4.1c2.2,1.5,4.1,2.3,5.8,2.3c1,0,1.9-0.3,2.6-0.8
		c0.7-0.5,1-1.2,1-2.2s-0.4-1.7-1.2-2.3s-1.8-0.8-3.2-0.8c-0.7,0-1.7,0.2-3.1,0.6v-3.8l4.4-5.2H139.6z"/>
</g>
<path id="XMLID_2_" class="st0" d="M215.3,35.2c0,14.4,11.7,26.1,26.1,26.1s26.1-11.7,26.1-26.1c0-7.3-3-13.9-7.8-18.6H223
	C218.2,21.4,215.3,28,215.3,35.2z"/>
<g id="XMLID_173_">
	<path id="XMLID_181_" class="st3" d="M242.1,38.9v-4h5v4h2.6v4.5h-2.6v5.5h-5v-5.5h-9.3v-3.9l8.2-13.6h5.6l-7.8,13.1H242.1z"/>
</g>
<path id="XMLID_3_" class="st0" d="M310.3,35.3c0,14.1,11.4,25.5,25.5,25.5s25.5-11.4,25.5-25.5c0-7.1-2.9-13.6-7.6-18.2h-35.8
	C313.2,21.8,310.3,28.2,310.3,35.3z"/>
<g id="XMLID_4_">
	<path id="XMLID_75_" class="st3" d="M337.1,29.7c-1.4,0-2.5,0.5-3.3,1.4c-0.8,1-1.3,2.3-1.4,3.9c1.4-0.9,2.9-1.4,4.6-1.4
		c2.2,0,4,0.7,5.4,2.1c1.4,1.4,2.2,3.3,2.2,5.6s-0.8,4.2-2.3,5.6c-1.6,1.4-3.5,2.1-5.9,2.1c-1.6,0-3-0.3-4.2-0.9
		c-1.2-0.6-2.1-1.5-2.8-2.6c-1.3-2.2-2-4.9-2-8.2c0-2.1,0.3-4,0.8-5.6c0.5-1.6,1.2-2.9,2.1-3.8c1.8-1.8,3.9-2.8,6.5-2.8
		c1.1,0,2.1,0.2,3.1,0.5c1,0.3,1.7,0.6,2.3,1c0.5,0.3,1.1,0.7,1.8,1.3l-2.4,3.6c-0.1-0.1-0.3-0.3-0.6-0.5c-0.3-0.2-0.8-0.5-1.5-0.9
		C338.5,29.9,337.8,29.7,337.1,29.7z M336.4,38c-1,0-1.9,0.3-2.6,0.9c-0.7,0.6-1,1.4-1,2.4s0.3,1.8,1,2.5c0.7,0.7,1.5,1,2.5,1
		c1,0,1.8-0.3,2.5-0.9c0.7-0.6,1-1.4,1-2.4c0-1-0.3-1.8-0.9-2.5C338.3,38.4,337.5,38,336.4,38z"/>
</g>
</svg>
